<?xml version="1.0" standalone="no"?>
<!DOCTYPE svg PUBLIC "-//W3C//DTD SVG 20010904//EN"
 "http://www.w3.org/TR/2001/REC-SVG-20010904/DTD/svg10.dtd">
<svg version="1.0" xmlns="http://www.w3.org/2000/svg"
 width="220.000000pt" height="183.000000pt" viewBox="0 0 220.000000 183.000000"
 preserveAspectRatio="xMidYMid meet">

<g transform="translate(0.000000,183.000000) scale(0.100000,-0.100000)"
fill="#000000" stroke="none">
<path d="M851 1695 c-62 -19 -117 -76 -132 -137 -10 -39 -17 -48 -34 -48 -38
0 -107 -44 -126 -80 -51 -94 -1 -191 109 -215 38 -8 45 -28 40 -112 l-3 -58
55 19 c59 20 206 27 290 14 43 -7 44 -7 19 7 -44 24 -150 36 -226 25 -106 -15
-103 -16 -103 34 0 73 -12 93 -62 101 -52 9 -81 27 -96 61 -28 61 -3 136 53
160 50 20 73 18 78 -8 3 -18 5 -16 6 8 7 168 178 261 333 183 44 -22 87 -91
95 -149 l6 -40 56 0 c70 0 116 -26 138 -77 29 -72 -4 -143 -76 -163 -64 -18
-74 -14 -66 23 l7 32 -23 -30 c-13 -16 -33 -38 -44 -48 -20 -18 -20 -18 2 -8
32 16 33 15 28 -36 l-5 -48 13 39 c12 38 14 40 59 41 91 4 148 64 148 156 0
84 -58 139 -162 154 -39 6 -48 11 -48 26 0 30 -34 90 -72 126 -61 59 -162 78
-257 48z"/>
<path d="M560 1674 c0 -9 -9 -18 -20 -21 -25 -7 -25 -7 5 -37 l25 -25 25 24
24 25 -25 25 c-29 29 -34 31 -34 9z"/>
<path d="M1357 1130 c-3 -11 -16 -24 -29 -29 -23 -10 -23 -10 -2 -16 12 -4 26
-15 30 -25 8 -17 11 -16 34 9 l25 26 -26 27 c-25 26 -27 27 -32 8z"/>
<path d="M573 983 c-9 -3 -13 -32 -13 -94 0 -72 3 -89 15 -89 12 0 15 17 15
95 0 52 -1 95 -2 94 -2 0 -9 -3 -15 -6z"/>
<path d="M1006 965 c12 -18 15 -42 12 -95 -1 -38 0 -70 3 -70 3 0 11 11 19 24
17 33 8 120 -15 146 -25 28 -39 25 -19 -5z"/>
<path d="M1201 954 c-15 -19 -21 -41 -21 -75 0 -59 15 -93 47 -108 33 -15 54
-14 23 2 -13 7 -27 23 -31 37 -12 43 -9 114 5 143 19 34 4 35 -23 1z"/>
<path d="M1280 971 c0 -5 5 -13 10 -16 6 -3 10 -2 10 4 0 5 -4 13 -10 16 -5 3
-10 2 -10 -4z"/>
<path d="M1430 960 c0 -5 7 -10 15 -10 8 0 15 5 15 10 0 6 -7 10 -15 10 -8 0
-15 -4 -15 -10z"/>
<path d="M1662 938 c-7 -7 -12 -39 -12 -75 0 -49 3 -63 15 -63 12 0 15 15 15
75 0 41 -1 75 -3 75 -2 0 -8 -5 -15 -12z"/>
<path d="M490 935 c0 -10 29 -24 34 -17 3 6 -3 12 -14 15 -11 3 -20 4 -20 2z"/>
<path d="M687 902 c-19 -21 -22 -54 -7 -83 18 -33 25 -21 25 41 0 33 0 60 -1
60 0 0 -8 -8 -17 -18z"/>
<path d="M745 860 c0 -62 7 -74 25 -41 19 37 7 101 -19 101 -4 0 -6 -27 -6
-60z"/>
<path d="M820 904 c-18 -20 -17 -71 1 -89 13 -13 15 -7 14 45 0 33 -1 60 -1
60 -1 0 -7 -7 -14 -16z"/>
<path d="M885 861 c0 -47 2 -58 12 -48 22 23 25 62 6 86 -18 22 -18 22 -18
-38z"/>
<path d="M956 904 c-18 -18 -21 -56 -6 -85 18 -33 25 -21 25 41 0 33 -1 60 -2
60 -1 0 -9 -7 -17 -16z"/>
<path d="M1080 903 c0 -10 9 -29 20 -43 11 -14 20 -33 20 -43 0 -10 6 -17 13
-15 22 8 18 43 -8 68 -14 13 -25 29 -25 37 0 7 -4 13 -10 13 -5 0 -10 -8 -10
-17z"/>
<path d="M1330 860 c0 -47 3 -60 15 -60 12 0 15 13 15 60 0 47 -3 60 -15 60
-12 0 -15 -13 -15 -60z"/>
<path d="M1388 913 c7 -3 16 -2 19 1 4 3 -2 6 -13 5 -11 0 -14 -3 -6 -6z"/>
<path d="M1430 860 c0 -47 3 -60 15 -60 12 0 15 13 15 60 0 47 -3 60 -15 60
-12 0 -15 -13 -15 -60z"/>
<path d="M1500 825 c0 -76 3 -95 14 -95 17 0 23 45 18 133 -3 41 -8 57 -18 57
-11 0 -14 -20 -14 -95z"/>
<path d="M1583 890 c8 -22 8 -38 0 -60 -9 -24 -9 -30 2 -30 22 0 38 63 24 94
-18 38 -41 35 -26 -4z"/>
</g>
</svg>
