<?xml version="1.0" standalone="no"?>
<!DOCTYPE svg PUBLIC "-//W3C//DTD SVG 20010904//EN"
 "http://www.w3.org/TR/2001/REC-SVG-20010904/DTD/svg10.dtd">
<svg version="1.0" xmlns="http://www.w3.org/2000/svg"
 width="109.000000pt" height="90.000000pt" viewBox="0 0 109.000000 90.000000"
 preserveAspectRatio="xMidYMid meet">

<g transform="translate(0.000000,90.000000) scale(0.100000,-0.100000)"
fill="#000000" stroke="none">
<path d="M337 817 c-49 -16 -94 -59 -108 -106 -9 -32 -18 -40 -49 -50 -78 -23
-116 -94 -87 -164 16 -37 42 -56 92 -67 29 -6 30 -7 33 -71 l3 -66 52 14 c35
10 85 13 151 10 93 -4 97 -3 70 11 -31 16 -143 21 -206 8 -37 -7 -38 -6 -38
22 0 16 -5 43 -11 61 -9 25 -16 31 -40 31 -44 0 -91 47 -91 92 0 48 15 72 56
92 45 21 56 20 57 -6 1 -13 5 -1 10 26 15 93 77 146 171 146 81 0 133 -28 159
-83 10 -23 19 -52 19 -64 0 -20 5 -23 40 -23 101 0 157 -78 115 -160 -15 -29
-22 -33 -84 -45 -33 -7 -34 -6 -27 20 l7 27 -25 -28 c-17 -20 -20 -30 -12 -32
8 -2 12 -14 9 -30 l-3 -27 10 25 c8 21 17 26 50 26 51 2 88 26 107 71 32 78
-19 160 -112 179 -43 8 -48 13 -60 48 -35 101 -143 148 -258 113z"/>
<path d="M96 795 c-3 -8 -12 -15 -20 -15 -12 0 -10 -6 7 -23 16 -17 25 -20 32
-12 6 6 19 17 30 23 18 10 18 11 2 12 -10 0 -20 7 -23 15 -4 8 -10 15 -14 15
-4 0 -10 -7 -14 -15z"/>
<path d="M737 344 c-14 -19 -15 -24 -4 -31 8 -4 16 -12 18 -18 2 -5 13 0 25
11 l21 21 -21 20 -21 20 -18 -23z"/>
<path d="M464 227 c8 -16 13 -53 13 -83 -2 -46 0 -52 11 -37 21 29 15 89 -13
120 l-25 28 14 -28z"/>
<path d="M100 165 c0 -41 4 -75 9 -75 11 0 18 56 13 109 -7 69 -22 46 -22 -34z"/>
<path d="M620 211 c-17 -33 -12 -116 8 -134 27 -25 35 -21 16 8 -12 19 -15 41
-12 85 2 33 3 60 1 60 -1 0 -7 -9 -13 -19z"/>
<path d="M810 220 c0 -5 5 -10 10 -10 6 0 10 5 10 10 0 6 -4 10 -10 10 -5 0
-10 -4 -10 -10z"/>
<path d="M997 203 c-11 -10 -8 -113 3 -113 6 0 10 27 10 60 0 61 -1 65 -13 53z"/>
<path d="M47 189 c7 -7 15 -10 18 -7 3 3 -2 9 -12 12 -14 6 -15 5 -6 -5z"/>
<path d="M255 140 c0 -38 3 -46 13 -38 6 6 12 23 12 38 0 15 -6 32 -12 38 -10
8 -13 0 -13 -38z"/>
<path d="M365 139 c0 -42 2 -47 13 -32 6 9 12 27 12 39 0 12 -6 26 -12 32 -10
8 -13 -1 -13 -39z"/>
<path d="M728 140 c5 -65 22 -65 22 0 0 33 -4 50 -12 50 -9 0 -12 -15 -10 -50z"/>
<path d="M810 140 c0 -27 5 -50 10 -50 6 0 10 23 10 50 0 28 -4 50 -10 50 -5
0 -10 -22 -10 -50z"/>
<path d="M870 110 c0 -47 4 -80 10 -80 6 0 10 33 10 80 0 47 -4 80 -10 80 -6
0 -10 -33 -10 -80z"/>
<path d="M931 169 c6 -12 8 -36 5 -53 -5 -29 -5 -30 9 -12 8 11 15 23 15 27 0
19 -21 59 -30 59 -7 0 -7 -7 1 -21z"/>
<path d="M196 164 c-10 -25 -7 -51 7 -62 9 -8 12 0 12 34 0 45 -8 57 -19 28z"/>
<path d="M306 164 c-10 -25 -7 -51 7 -62 10 -8 12 -1 12 34 0 45 -8 57 -19 28z"/>
<path d="M417 173 c-12 -11 -8 -60 6 -71 10 -8 12 -1 12 34 0 42 -4 51 -18 37z"/>
<path d="M520 171 c0 -4 9 -20 21 -35 11 -14 17 -30 14 -36 -3 -5 -1 -10 5
-10 22 0 21 30 -2 59 -23 30 -38 39 -38 22z"/>
</g>
</svg>
